<svg width="868" height="559" viewBox="0 0 868 559" fill="none" xmlns="http://www.w3.org/2000/svg">
<path fill-rule="evenodd" clip-rule="evenodd" d="M447.741 32.3739C526.548 27.082 604.163 -18.365 677.753 9.70271C759.59 40.9158 834.046 106.256 858.046 188.866C881.804 270.645 829.674 351.172 800.193 431.15C771.81 508.145 748.115 586.215 689.893 645.025C622.774 712.823 544.076 781.449 447.741 787.167C349.419 793.004 254.457 741.625 183.235 675.103C117.494 613.699 92.1135 525.034 73.8603 437.956C57.414 359.498 53.6072 277.997 84.4413 203.797C113.893 132.923 169.123 72.3781 239.596 39.1255C303.683 8.88602 376.747 37.1413 447.741 32.3739Z" fill="#DA803C" fill-opacity="0.4"/>
<path fill-rule="evenodd" clip-rule="evenodd" d="M434.123 114.067C522.3 108.01 609.145 55.9936 691.485 88.1183C783.053 123.843 866.362 198.628 893.216 293.179C919.799 386.778 861.471 478.945 828.484 570.483C796.726 658.608 770.213 747.962 705.069 815.274C629.969 892.872 541.912 971.416 434.123 977.962C324.109 984.642 217.855 925.836 138.165 849.699C64.6056 779.419 36.2077 677.939 15.7841 578.274C-2.61792 488.474 -6.87735 395.193 27.6231 310.268C60.5773 229.149 122.374 159.853 201.227 121.794C272.934 87.1836 354.687 119.523 434.123 114.067Z" stroke="#FB3B00" stroke-width="2"/>
</svg>
